<svg xmlns="http://www.w3.org/2000/svg" xmlns:xlink="http://www.w3.org/1999/xlink" id="Layer_1" x="0" y="0" version="1.1" viewBox="0 0 112 112" xml:space="preserve" style="enable-background:new 0 0 112 112"><style type="text/css">.st6{fill:#fff}</style><path id="X-Pack_5_" d="M63.3,81.7l19.8-19.8l11.3,11.3c4.7,4.7,4.7,12.3,0,17l-2.8,2.8c-4.7,4.7-12.3,4.7-17,0	L63.3,81.7z M94.4,22.3l-2.8-2.8c-4.7-4.7-12.3-4.7-17,0l-17,17v0l-17-17c-4.7-4.7-12.3-4.7-17,0l-2.8,2.8c-4.7,4.7-4.7,12.3,0,17	l17,17l0,0l-17,17c-4.7,4.7-4.7,12.3,0,17l2.8,2.8c4.7,4.7,12.3,4.7,17,0l17-17l12.4-12.4l7.4-7.4l17-17	C99.1,34.6,99.1,27,94.4,22.3z" class="st6"/></svg>