<svg xmlns="http://www.w3.org/2000/svg" xmlns:xlink="http://www.w3.org/1999/xlink" width="32" height="32" version="1.1" viewBox="0 0 32 32"><title>icon / product-logo / 32x32px / cloud / white</title><desc>Created with Sketch.</desc><defs><polygon id="path-1" points="0 0 28.283 0 28.283 23.701 0 23.701"/></defs><g id="icon-/-product-logo-/-32x32px-/-cloud-/-white" fill="none" fill-rule="evenodd" stroke="none" stroke-width="1"><g id="Group-6" transform="translate(1.000000, 0.000000)"><path id="Fill-1" fill="#FFF" d="M20.7422,21.2177 C20.0322,20.9977 19.2642,21.0827 18.5962,21.4057 C17.8102,21.7857 16.9302,21.9997 16.0002,21.9997 C15.0692,21.9997 14.1892,21.7857 13.4042,21.4057 C12.7352,21.0827 11.9682,20.9977 11.2582,21.2177 C8.2772,22.1417 5.6692,23.9117 3.7172,26.2497 C6.6512,29.7637 11.0632,31.9997 16.0002,31.9997 C20.9362,31.9997 25.3482,29.7637 28.2832,26.2497 C26.3302,23.9117 23.7222,22.1417 20.7422,21.2177"/><g id="Group-5"><mask id="mask-2" fill="#fff"><use xlink:href="#path-1"/></mask><path id="Fill-3" fill="#FFF" d="M16,-0.0001 C7.164,-0.0001 0,7.1639 0,15.9999 C0,18.7919 0.719,21.4159 1.977,23.7009 C4.257,21.2009 7.138,19.3539 10.37,18.3519 C10.402,18.3419 10.437,18.3389 10.469,18.3299 C10.167,17.6129 10,16.8259 10,15.9999 C10,12.6869 12.687,9.9999 16,9.9999 C16.931,9.9999 17.811,10.2139 18.596,10.5939 C19.266,10.9169 20.032,11.0019 20.742,10.7819 C23.723,9.8579 26.33,8.0879 28.283,5.7499 C25.349,2.2369 20.936,-0.0001 16,-0.0001" mask="url(#mask-2)"/></g></g></g></svg>