<svg xmlns="http://www.w3.org/2000/svg" xmlns:xlink="http://www.w3.org/1999/xlink" width="32" height="32" version="1.1" viewBox="0 0 32 32"><title>icon / product-logo / 32x32px / stack / white</title><desc>Created with Sketch.</desc><g id="icon-/-product-logo-/-32x32px-/-stack-/-white" fill="none" fill-rule="evenodd" stroke="none" stroke-width="1"><path id="Fill-1" fill="#FFF" d="M32,9 L32,2.5 C32,1.119 30.881,0 29.5,0 L2.5,0 C1.119,0 0,1.119 0,2.5 L0,9 L32,9 Z"/><polygon id="Fill-3" fill="#FFF" points="0 20 32 20 32 12 0 12"/><path id="Fill-5" fill="#FFF" d="M14.5,23 L0,23 L0,29.5 C0,30.881 1.119,32 2.5,32 L14.5,32 L14.5,23 Z"/><path id="Fill-6" fill="#FFF" d="M17.5,23 L17.5,32 L29.5,32 C30.881,32 32,30.881 32,29.5 L32,23 L17.5,23 Z"/></g></svg>