<svg xmlns="http://www.w3.org/2000/svg" xmlns:xlink="http://www.w3.org/1999/xlink" width="32" height="32" version="1.1" viewBox="0 0 32 32"><title>icon / product-logo / 32x32px / maps / white</title><desc>Created with Sketch.</desc><g id="icon-/-product-logo-/-32x32px-/-maps-/-white" fill="none" fill-rule="evenodd" stroke="none" stroke-width="1"><g id="Group-7" fill="#FFF"><path id="Fill-1" d="M25.5,9.5001 C25.5,16.1501 16,20.9251 16,20.9251 C16,20.9251 6.5,16.1501 6.5,9.5001 C6.5,4.2531 10.753,0.0001 16,0.0001 C21.247,0.0001 25.5,4.2531 25.5,9.5001"/><path id="Fill-4" d="M25.5303,17.0729 C24.7343,18.0709 23.8013,19.0479 22.6963,19.9889 C20.0763,22.2229 17.4573,23.5499 17.3473,23.6059 L16.0003,24.2829 L14.6523,23.6059 C14.5433,23.5499 11.9243,22.2229 9.3033,19.9889 C8.1993,19.0479 7.2653,18.0709 6.4693,17.0729 L0.0003,21.9249 L11.3643,30.4479 C14.1113,32.5089 17.8883,32.5089 20.6353,30.4479 L32.0003,21.9249 L25.5303,17.0729 Z"/></g></g></svg>